<svg xmlns="http://www.w3.org/2000/svg" viewBox="-60 -60 658 198"><style>@keyframes dash{0%{stroke-dashoffset:727px}to{stroke-dashoffset:0}}@keyframes stroke-width{0%{stroke-width:3px}to{stroke-width:8px}}@keyframes fade{0%{opacity:0}to{opacity:1}}@keyframes glow{0%{filter:drop-shadow(0 0 2px #fff6) drop-shadow(0 0 8px var(--color)) drop-shadow(0 0 26px var(--color))}to{filter:drop-shadow(0 0 1.8px #fff6) drop-shadow(0 0 7.2px var(--color)) drop-shadow(0 0 23.5px var(--color))}}@keyframes flicker{0%,18%,22%,25%,53%,57%,to{opacity:1}20%,24%,55%{opacity:.87}}:root{--red:#f69;--pink:#f9e;--blue:#78f;--neon-animation:glow 0.11s ease-in-out 0s infinite alternate, flicker 2s infinite 2.8s alternate}path{fill:none;stroke:var(--color);stroke-linecap:round;stroke-linejoin:round;stroke-width:3px;stroke-dasharray:727px;stroke-dashoffset:727px;animation:dash 1s cubic-bezier(.8,0,.2,1) var(--delay) forwards,stroke-width 1s cubic-bezier(.8,0,.2,1) calc(var(--delay) + .5s) forwards,fade .2s linear calc(var(--delay) + 0s) forwards,var(--neon-animation);--color:var(--pink)}.blue{--color:var(--blue)}.red{--color:var(--red)}</style><path d="M 2.273 72.727 L 0 72.727 L 0 0 L 2.273 0 L 2.273 35.227 L 48.58 35.227 L 48.58 0 L 50.852 0 L 50.852 72.727 L 48.58 72.727 L 48.58 37.5 L 2.273 37.5 L 2.273 72.727 Z" class="blue" style="--delay:0.5s"/>
<path d="M2.273 72.727ZM104.119 36.79 104.119 33.523A15.134 15.134 0 00103.422 28.823 12.299 12.299 0 0099.893 23.42 14.354 14.354 0 0093.328 20.095 21.108 21.108 0 0088.636 19.602Q82.884 19.602 78.587 22.141A13.558 13.558 0 0072.585 29.261L70.455 28.409A15.314 15.314 0 0174.396 22.514 18.355 18.355 0 0180.04 18.942 21.149 21.149 0 0180.717 18.679 22.112 22.112 0 0187.06 17.377 25.896 25.896 0 0188.636 17.33 24.226 24.226 0 0192.574 17.636 18.689 18.689 0 0196.076 18.555 17.313 17.313 0 0199.801 20.461 15.067 15.067 0 01101.669 21.964Q103.977 24.148 105.185 27.095 106.392 30.043 106.392 33.523L106.392 72.727 104.119 72.727 104.119 61.648 103.835 61.648A22.513 22.513 0 0199.414 68.093Q96.697 70.845 93.164 72.354 89.631 73.864 85.511 73.864A18.927 18.927 0 0178.943 72.737 17.864 17.864 0 0177.255 72.017 14.856 14.856 0 0171.183 66.619 14.034 14.034 0 0169.218 61.588 19.371 19.371 0 0168.892 57.955 15.335 15.335 0 0169.478 53.676 14.17 14.17 0 0169.78 52.752 10.207 10.207 0 0171.638 49.617 13.117 13.117 0 0172.905 48.331Q74.644 46.785 77.467 45.583A28.662 28.662 0 0179.173 44.922Q82.101 43.89 86.22 43.214A74.216 74.216 0 0189.489 42.756Q93.253 42.33 96.591 41.761A24.665 24.665 0 0098.908 41.258Q100.711 40.769 102.024 40.057 104.119 38.92 104.119 36.79ZM104.119 49.432 104.119 41.193A9.255 9.255 0 01102.948 41.935 12.473 12.473 0 01101.722 42.507 21.18 21.18 0 01100.231 43.044 27.78 27.78 0 0198.562 43.519 38.628 38.628 0 0196.262 44.023 47.58 47.58 0 0194.744 44.283 121.764 121.764 0 0192.614 44.593 146.772 146.772 0 0190.341 44.886 71.636 71.636 0 0086.074 45.506Q81.863 46.256 79.031 47.398A20.801 20.801 0 0078.835 47.479 18.986 18.986 0 0076.349 48.716Q75.087 49.473 74.165 50.354A8.746 8.746 0 0072.905 51.847 10.488 10.488 0 0071.216 56.783 13.103 13.103 0 0071.165 57.955Q71.165 64.134 75.302 67.862A14.397 14.397 0 0084.206 71.546 18.8 18.8 0 0085.511 71.591 16.721 16.721 0 0094.922 68.803 18.935 18.935 0 00100.728 62.676 23.209 23.209 0 00101.634 61.026 23.333 23.333 0 00103.77 54.158 30.772 30.772 0 00104.119 49.432Z" style="--delay:0.7s"/>
<path d="M 3 73 Z M 128.267 36.08 L 128.267 72.727 L 125.994 72.727 L 125.994 18.182 L 128.267 18.182 L 128.267 26.847 L 128.551 26.847 A 14.617 14.617 0 0 1 133.908 20.619 A 18.224 18.224 0 0 1 134.854 20.028 A 18.859 18.859 0 0 1 142.645 17.577 A 23.368 23.368 0 0 1 144.886 17.472 Q 150.355 17.472 154.545 19.851 Q 158.736 22.23 161.115 26.42 A 18.223 18.223 0 0 1 163.326 33.264 A 23.009 23.009 0 0 1 163.494 36.08 L 163.494 72.727 L 161.222 72.727 L 161.222 36.08 Q 161.222 28.835 156.676 24.29 A 15.33 15.33 0 0 0 147.31 19.88 A 21.043 21.043 0 0 0 144.886 19.744 A 19.004 19.004 0 0 0 140.061 20.336 A 15.888 15.888 0 0 0 136.31 21.839 A 15.384 15.384 0 0 0 130.415 27.628 A 15.87 15.87 0 0 0 128.37 34.049 A 19.654 19.654 0 0 0 128.267 36.08 z z Z" style="--delay:0.9s"/>
<path d="M 2.273 72.727 Z Z Z M 217.756 36.79 L 217.756 33.523 A 15.134 15.134 0 0 0 217.058 28.823 A 12.299 12.299 0 0 0 213.53 23.42 A 14.354 14.354 0 0 0 206.964 20.095 A 21.108 21.108 0 0 0 202.273 19.602 Q 196.52 19.602 192.223 22.141 A 13.558 13.558 0 0 0 186.222 29.261 L 184.091 28.409 A 15.314 15.314 0 0 1 188.033 22.514 A 18.355 18.355 0 0 1 193.677 18.942 A 21.149 21.149 0 0 1 194.354 18.679 A 22.112 22.112 0 0 1 200.696 17.377 A 25.896 25.896 0 0 1 202.273 17.33 A 24.226 24.226 0 0 1 206.21 17.636 A 18.689 18.689 0 0 1 209.712 18.555 A 17.313 17.313 0 0 1 213.437 20.461 A 15.067 15.067 0 0 1 215.305 21.964 Q 217.614 24.148 218.821 27.095 Q 220.028 30.043 220.028 33.523 L 220.028 72.727 L 217.756 72.727 L 217.756 61.648 L 217.472 61.648 A 22.513 22.513 0 0 1 213.05 68.093 Q 210.334 70.845 206.8 72.354 Q 203.267 73.864 199.148 73.864 A 18.927 18.927 0 0 1 192.579 72.737 A 17.864 17.864 0 0 1 190.891 72.017 A 14.856 14.856 0 0 1 184.819 66.619 A 14.034 14.034 0 0 1 182.854 61.588 A 19.371 19.371 0 0 1 182.528 57.955 A 15.335 15.335 0 0 1 183.114 53.676 A 14.17 14.17 0 0 1 183.416 52.752 A 10.207 10.207 0 0 1 185.275 49.617 A 13.117 13.117 0 0 1 186.541 48.331 Q 188.28 46.785 191.103 45.583 A 28.662 28.662 0 0 1 192.809 44.922 Q 195.737 43.89 199.856 43.214 A 74.216 74.216 0 0 1 203.125 42.756 Q 206.889 42.33 210.227 41.761 A 24.665 24.665 0 0 0 212.545 41.258 Q 214.347 40.769 215.661 40.057 Q 217.756 38.92 217.756 36.79 Z M 217.756 49.432 L 217.756 41.193 A 9.255 9.255 0 0 1 216.584 41.935 A 12.473 12.473 0 0 1 215.359 42.507 A 21.18 21.18 0 0 1 213.867 43.044 A 27.78 27.78 0 0 1 212.198 43.519 A 38.628 38.628 0 0 1 209.898 44.023 A 47.58 47.58 0 0 1 208.381 44.283 A 121.764 121.764 0 0 1 206.25 44.593 A 146.772 146.772 0 0 1 203.977 44.886 A 71.636 71.636 0 0 0 199.71 45.506 Q 195.499 46.256 192.668 47.398 A 20.801 20.801 0 0 0 192.472 47.479 A 18.986 18.986 0 0 0 189.985 48.716 Q 188.723 49.473 187.802 50.354 A 8.746 8.746 0 0 0 186.541 51.847 A 10.488 10.488 0 0 0 184.853 56.783 A 13.103 13.103 0 0 0 184.801 57.955 Q 184.801 64.134 188.938 67.862 A 14.397 14.397 0 0 0 197.843 71.546 A 18.8 18.8 0 0 0 199.148 71.591 A 16.721 16.721 0 0 0 208.558 68.803 A 18.935 18.935 0 0 0 214.364 62.676 A 23.209 23.209 0 0 0 215.27 61.026 A 23.333 23.333 0 0 0 217.406 54.158 A 30.772 30.772 0 0 0 217.756 49.432 Z" style="--delay:1.1s"/>

<path d="M2.273 73.722ZM294.034 23.722 291.619 23.722Q290.945 20.1 288.991 16.336A27.444 27.444 0 00284.45 10.03 31.182 31.182 0 00283.807 9.375Q280.575 6.179 276.172 4.226A22.582 22.582 0 00269.888 2.504 28.692 28.692 0 00266.193 2.273 25.058 25.058 0 00252.397 6.339Q246.058 10.405 242.205 18.235 238.713 25.332 238.386 35.271A63.408 63.408 0 00238.352 37.358Q238.352 47.037 241.113 54.121A31.351 31.351 0 00242.205 56.605Q246.058 64.418 252.397 68.431A25.3 25.3 0 00266.193 72.444 27.508 27.508 0 00271.747 71.905 21.974 21.974 0 00276.172 70.508 25.524 25.524 0 00282.981 66.17 24.046 24.046 0 00283.807 65.395 27.668 27.668 0 00288.45 59.428 25.729 25.729 0 00288.991 58.434 29.281 29.281 0 00290.841 54.045 23.945 23.945 0 00291.619 50.995L294.034 50.995Q293.359 54.83 291.335 58.967A29.964 29.964 0 01286.807 65.671 34.338 34.338 0 01285.866 66.691 26.201 26.201 0 01278.871 71.846 30.458 30.458 0 01277.521 72.497 24.415 24.415 0 01271.164 74.35 32.388 32.388 0 01266.193 74.716 28.884 28.884 0 01256.826 73.238 25.727 25.727 0 01250.462 70.029Q243.679 65.341 239.879 56.925A41.856 41.856 0 01236.756 46.28 56.343 56.343 0 01236.08 37.358 55.459 55.459 0 01236.914 27.505 41.367 41.367 0 01239.879 17.792Q243.679 9.375 250.462 4.688A26.519 26.519 0 01264.245.057 32.866 32.866 0 01266.193 0 31.988 31.988 0 01271.883.484 24.203 24.203 0 01277.521 2.202 27.524 27.524 0 01283.814 6.073 24.834 24.834 0 01285.866 7.973 30.931 30.931 0 01290.382 13.896 28.098 28.098 0 01291.335 15.679 33.153 33.153 0 01293.183 20.252 26.464 26.464 0 01294.034 23.722Z" class="blue" style="--delay:1.3s"/>

<path d="M2.273 73.722 2.273 73.722ZM348.153 55.824 348.153 19.176 350.426 19.176 350.426 73.722 348.153 73.722 348.153 65.057 347.869 65.057A14.617 14.617 0 01342.512 71.285 18.224 18.224 0 01341.566 71.875 18.859 18.859 0 01333.776 74.327 23.368 23.368 0 01331.534 74.432Q326.065 74.432 321.875 72.053 317.685 69.674 315.305 65.483A18.223 18.223 0 01313.094 58.639 23.009 23.009 0 01312.926 55.824L312.926 19.176 315.199 19.176 315.199 55.824Q315.199 63.069 319.744 67.614A15.33 15.33 0 00329.11 72.024 21.043 21.043 0 00331.534 72.159 19.004 19.004 0 00336.36 71.568 15.888 15.888 0 00340.11 70.064 15.384 15.384 0 00346.005 64.276 15.87 15.87 0 00348.051 57.855 19.654 19.654 0 00348.153 55.824Z" class="blue" style="--delay:1.5s"/>
<path d="M2.273 73.722ZM373.153 62.216 373.153 6.108 375.426 6.108 375.426 62.216A12.089 12.089 0 00375.698 64.839 9.148 9.148 0 00376.847 67.703Q378.267 69.993 380.611 71.218A10.725 10.725 0 00385.653 72.444 10.492 10.492 0 00386.761 72.387 8.397 8.397 0 00387.553 72.266 10.738 10.738 0 00388.775 71.938 12.657 12.657 0 00389.347 71.733L390.057 73.864A16.984 16.984 0 01388.284 74.409 15.272 15.272 0 01387.962 74.485 9.245 9.245 0 01386.797 74.666 12.348 12.348 0 01385.653 74.716 12.949 12.949 0 01379.457 73.189 11.84 11.84 0 01374.876 68.857 11.551 11.551 0 01373.322 64.513 15.157 15.157 0 01373.153 62.216ZM365.199 19.176 386.79 19.176 386.79 21.449 365.199 21.449 365.199 19.176Z" class="red" style="--delay:1.7s"/>
<path d="M2.273 73.722ZM468.324 44.176 468.324 46.449 424.574 46.449 424.574 44.176 466.051 44.176A27.606 27.606 0 00465.01 36.488 24.3 24.3 0 00463.352 32.262 23.488 23.488 0 00459.045 26.219 21.287 21.287 0 00456.108 23.757 17.271 17.271 0 00446.023 20.597Q440.412 20.597 435.866 23.935A22.416 22.416 0 00430.092 30.26 28.03 28.03 0 00428.587 33.026 29.58 29.58 0 00426.023 41.853 36.809 36.809 0 00425.71 46.023L425.71 46.307A35.504 35.504 0 00426.763 55.079 31.085 31.085 0 00428.214 59.429 23.734 23.734 0 00432.177 65.902 21.38 21.38 0 00435.511 68.999 17.864 17.864 0 00443.861 72.361 23.535 23.535 0 00447.159 72.586Q452.202 72.586 455.629 70.81 459.055 69.034 461.133 66.726A45.029 45.029 0 00462.325 65.349Q463.482 63.954 464.16 62.857A12.991 12.991 0 00464.205 62.784L466.051 64.063A17.811 17.811 0 01464.976 65.672Q464.36 66.501 463.577 67.393A38.732 38.732 0 01462.429 68.644 19.203 19.203 0 01459.285 71.267 25.482 25.482 0 01456.25 73.012Q452.714 74.746 447.798 74.852A29.926 29.926 0 01447.159 74.858 23.08 23.08 0 01440.081 73.806 20.118 20.118 0 01434.677 71.13 24.217 24.217 0 01427.058 62.375 29.152 29.152 0 01426.385 61.009Q423.438 54.617 423.438 46.591A37.313 37.313 0 01424.324 38.302 30.68 30.68 0 01426.403 32.174 27.639 27.639 0 01430.418 25.825 23.605 23.605 0 01434.482 22.053 19.105 19.105 0 01446.023 18.324 19.526 19.526 0 01454.847 20.348 22.009 22.009 0 01461.932 25.959 26.785 26.785 0 01466.527 33.916 30.264 30.264 0 01466.637 34.216Q468.324 38.885 468.324 44.176ZM407.102 73.722 404.83 73.722 404.83 19.176 407.102 19.176 407.102 73.722ZM404.389 8.579A2.18 2.18 0 00405.966 9.233 2.202 2.202 0 00406.777 9.085 2.296 2.296 0 00407.564 8.559 2.766 2.766 0 00407.585 8.537 2.18 2.18 0 00408.239 6.961 2.202 2.202 0 00408.09 6.149 2.296 2.296 0 00407.564 5.363 2.766 2.766 0 00407.543 5.342 2.18 2.18 0 00405.966 4.688 2.202 2.202 0 00405.155 4.836 2.296 2.296 0 00404.368 5.363 2.766 2.766 0 00404.347 5.384 2.18 2.18 0 00403.693 6.961 2.202 2.202 0 00403.842 7.772 2.296 2.296 0 00404.368 8.559 2.766 2.766 0 00404.389 8.579Z" class="red" style="--delay:1.9s"/></svg>